<svg xmlns="http://www.w3.org/2000/svg" xmlns:xlink="http://www.w3.org/1999/xlink" width="500" zoomAndPan="magnify" viewBox="0 0 375 374.999991" height="500" preserveAspectRatio="xMidYMid meet" version="1.0"><defs><g/></defs><g fill="#000000" fill-opacity="1"><g transform="translate(11.023387, 253.894977)"><g><path d="M 14.671875 -201.640625 L 86.765625 -201.640625 C 106.160156 -201.640625 121.96875 -196.46875 134.1875 -186.125 C 146.40625 -175.78125 152.515625 -160.992188 152.515625 -141.765625 C 152.515625 -126.929688 148.804688 -114.503906 141.390625 -104.484375 C 133.984375 -94.460938 123.925781 -87.414062 111.21875 -83.34375 L 180.625 0 L 122.21875 0 L 60.609375 -79.6875 L 60.609375 0 L 14.671875 0 Z M 60.609375 -112.1875 L 66 -112.1875 C 70.226562 -112.1875 73.804688 -112.265625 76.734375 -112.421875 C 79.671875 -112.585938 83.015625 -113.160156 86.765625 -114.140625 C 90.515625 -115.117188 93.53125 -116.503906 95.8125 -118.296875 C 98.09375 -120.085938 100.046875 -122.691406 101.671875 -126.109375 C 103.304688 -129.535156 104.125 -133.691406 104.125 -138.578125 C 104.125 -143.472656 103.304688 -147.628906 101.671875 -151.046875 C 100.046875 -154.472656 98.09375 -157.082031 95.8125 -158.875 C 93.53125 -160.664062 90.515625 -162.050781 86.765625 -163.03125 C 83.015625 -164.007812 79.671875 -164.578125 76.734375 -164.734375 C 73.804688 -164.898438 70.226562 -164.984375 66 -164.984375 L 60.609375 -164.984375 Z M 60.609375 -112.1875 "/></g></g></g><g fill="#000000" fill-opacity="1"><g transform="translate(163.048171, 253.894977)"><g><path d="M 131.25 -201.640625 L 131.25 -161.3125 L 60.609375 -161.3125 L 60.609375 -121.234375 L 125.875 -121.234375 L 125.875 -80.90625 L 60.609375 -80.90625 L 60.609375 0 L 14.671875 0 L 14.671875 -201.640625 Z M 131.25 -201.640625 "/></g></g></g><g fill="#000000" fill-opacity="1"><g transform="translate(278.654889, 253.894977)"><g><path d="M 42.53125 -52.3125 C 50.351562 -52.3125 56.992188 -49.582031 62.453125 -44.125 C 67.910156 -38.664062 70.640625 -32.023438 70.640625 -24.203125 C 70.640625 -16.535156 67.910156 -9.972656 62.453125 -4.515625 C 56.992188 0.941406 50.351562 3.671875 42.53125 3.671875 C 34.875 3.671875 28.316406 0.941406 22.859375 -4.515625 C 17.398438 -9.972656 14.671875 -16.535156 14.671875 -24.203125 C 14.671875 -32.023438 17.398438 -38.664062 22.859375 -44.125 C 28.316406 -49.582031 34.875 -52.3125 42.53125 -52.3125 Z M 42.53125 -52.3125 "/></g></g></g></svg>